<svg width="40" height="40" viewBox="0 0 40 40" fill="none" xmlns="http://www.w3.org/2000/svg">
<path fill-rule="evenodd" clip-rule="evenodd" d="M11.3494 0H28.59C32.5366 0 33.9678 0.411333 35.4103 1.184C36.8528 1.95733 37.9857 3.09133 38.7572 4.536C39.5287 5.98067 39.9394 7.414 39.9394 11.3667V28.6333C39.9394 32.586 39.5287 34.0187 38.7572 35.464C37.9857 36.9087 36.8528 38.0427 35.4103 38.816C33.9678 39.5887 32.5366 40 28.59 40H11.3494C7.40277 40 5.97161 39.5887 4.52913 38.816C3.08665 38.0427 1.95437 36.9087 1.18287 35.464C0.41071 34.0187 0 32.586 0 28.6333V11.3667C0 7.414 0.41071 5.98067 1.18287 4.536C1.95437 3.09133 3.08665 1.95733 4.52913 1.184C5.97161 0.411333 7.40277 0 11.3494 0Z" fill="url(#paint0_linear_1_9)"/>
<defs>
<linearGradient id="paint0_linear_1_9" x1="-0.977817" y1="-1.51111" x2="39.94" y2="38.7852" gradientUnits="userSpaceOnUse">
<stop stop-color="#D140F8"/>
<stop offset="0.365081" stop-color="#788CE9"/>
<stop offset="0.683665" stop-color="#37C2DE"/>
<stop offset="1" stop-color="#1ECCAE"/>
</linearGradient>
</defs>
</svg>
